<?xml version="1.0" encoding="UTF-8"?>
<!DOCTYPE svg PUBLIC "-//W3C//DTD SVG 1.1//EN" "http://www.w3.org/Graphics/SVG/1.1/DTD/svg11.dtd">
<!-- Creator: CorelDRAW 2019 (64-Bit) -->
<svg xmlns="http://www.w3.org/2000/svg" xml:space="preserve" width="8165px" height="2160px" version="1.1" style="shape-rendering:geometricPrecision; text-rendering:geometricPrecision; image-rendering:optimizeQuality; fill-rule:evenodd; clip-rule:evenodd"
viewBox="0 0 8165 2160.13"
 xmlns:xlink="http://www.w3.org/1999/xlink"
 xmlns:xodm="http://www.corel.com/coreldraw/odm/2003">
 <defs>
  <style type="text/css">
   <![CDATA[
    .fil1 {fill:#FEFEFE}
    .fil0 {fill:#D71D48}
   ]]>
  </style>
 </defs>
 <g id="Layer_x0020_1">
  <metadata id="CorelCorpID_0Corel-Layer"/>
  <g id="_2423714282368">
   <path class="fil0" d="M7898.96 1878.65c-26.34,153.17 -126.02,281.48 -281.48,281.48l-7124 0c-142.08,0 -258.86,-108.2 -272.5,-246.68l-215.47 -1304.89c-30.83,-186.97 68.74,-359.33 273.81,-359.33l7598.64 -249.1c168.85,-5.53 315.99,163.6 282.16,360.24l-261.16 1518.28z"/>
   <path id="Logo_x0020_BukaLapak_x0020__x0028_CDR-2019_x0029__x0020_-_x0020_FileVector69.cdr" class="fil1" d="M6753.15 1478.04l-0.06 48.38 -37.12 -5.71 -14.31 -2.67 -5.72 -2.66 -2.86 -2.67 -2.86 -8 -2.86 -378.73c-17.96,-200.87 -133.05,-269.38 -346.2,-269.38 -110.56,7.36 -223.01,17.04 -331.89,37.34 -0.87,0.41 2.86,158.89 2.86,218.7l8.58 0c94.43,-11 188.29,-15.8 283.26,-21.33 92.42,0 125.88,-5.82 125.88,74.67 -63.67,5.4 -128.55,6.2 -191.69,16.01 -159.33,18.56 -279.16,70.48 -294.69,258.71l0 37.34c5.28,69 32.7,180.6 108.72,216.04l918.41 0 40.07 -2.67 0 -277.38 37.19 0 183.11 277.38 2.86 2.67 288.97 0 -251.77 -405.41 0 -2.66 277.52 -400.08 -291.83 0 -214.59 288.06 -2.86 2.66 -28.6 2.67 0 -581.43 -254.65 0 -2.87 880.15zm-5166.64 -245.55c1.95,182.97 112.81,346.64 288.41,360.14l37.12 0c128.99,-8.3 310.3,-82.04 425.47,-137.53l2.85 -2.75 0 -754.07 -254.14 0 -2.85 630.16c-64.75,20.81 -210.61,71.5 -234.15,-19.25 -4.25,-20.42 -6.77,-39.67 -8.57,-60.54 -6.34,-183.31 -2.85,-366.98 -2.85,-550.37l-257 0 5.71 534.21zm-947 460.96l503.94 0 37.01 -2.66 31.32 -2.67c189.01,-25.3 306.81,-162.98 319.48,-340.94l0 -34.68c-8.48,-111.21 -48.94,-158.29 -120.73,-225.55l2.85 -2.67c34.34,-21.93 72.12,-107.34 66.03,-142.96l0 -72c-18.21,-170.6 -152.76,-248.76 -344.5,-266.72l-495.4 0 0 1090.85zm512.48 -666.77l-17.08 2.66 -22.78 2.66 -219.23 2.68 0 -213.44 222.07 2.74c55.92,6.54 84.41,10.5 102.51,61.34l0 64.01c-10.76,40.31 -19.26,66.52 -65.49,77.35zm5.7 440.07l-34.17 2.67 -230.62 2.67 0 -218.71 108.19 0 119.58 0 28.48 2.67c63.91,9.98 89.06,31.2 99.64,90.68l0 18.67c-8.61,56.5 -25.16,91.06 -91.1,101.35zm2811.98 226.7l722.4 0 0 -144.02c56.48,0 120.93,-23.43 174.17,-40.01l2.86 0 2.86 2.67c29.37,27.44 117.46,38.97 157.03,42.67l94.23 0 0 138.69 254.12 0 0.15 -259.11 25.55 5.74 39.98 2.66 111.35 0c208.11,-16.2 324.78,-129.19 345.5,-322.72l2.84 -24 0 -146.69 -2.84 -24.01c-18.9,-176.57 -83.11,-292.54 -276.97,-322.72l-122.78 0c-125.84,16.79 -251.1,36.56 -376.9,53.34l-2.85 682.78c-16.58,-1.4 -41.91,0.87 -54.25,-10.67l-2.86 -2.66 -2.86 -365.4 -2.85 -34.67c-16.17,-151.08 -92.97,-226.07 -251.27,-250.71l-39.97 -2.66 -62.82 0 -54.25 2.66c-95.24,9.88 -191.45,17.1 -285.53,34.67l0 216.04 17.13 0c98.17,-5.73 195.78,-14.67 294.1,-18.67l79.95 0c28.77,5.37 39.86,15.48 45.68,42.68l0 32c-67.52,6.31 -135.14,10.26 -202.73,16 -152.49,17.81 -246.69,74.61 -276.96,216.04l-2.85 24 0 72.02 2.85 26.67c13.54,63.21 34.44,112.2 82.81,157.36l2.85 2.66 -177.03 2.67 0 -896.15 -2.85 -2.67 -256.99 0c-0.98,256.65 -0.57,518 -0.25,773.96 -23.79,-1.69 -54.36,2.68 -54.58,-25.6l-2.76 -355.65 -2.86 -45.34c-21.44,-140.2 -100.44,-217.25 -251.26,-237.38 -43.99,-4.1 -87.31,-2.93 -131.35,0 -88.37,5.16 -178.14,13.07 -265.54,26.67l-5.71 2.67 -2.85 2.67c-20.54,57.56 -48.02,113.22 -68.53,170.69l0 8.01 -242.7 0 -219.84 292.67 -28.58 0.71 0 -616.1 -251.26 0 0 1090.85 251.26 0 0 -240.04 25.81 0 171.21 237.37 2.85 2.67 288.4 0 0 -8.01 -2.86 -2.66 -222.72 -354.73 0 -5.33 242.7 -344.06 2.86 -2.67 5.71 -2.66c129.65,-24.22 268.45,-26.67 399.74,-26.67 29.98,7 38.19,14.65 45.69,42.67l2.85 34.67c-79.3,0 -161.24,8.18 -239.84,18.67l-11.42 2.67c-119.99,18.68 -204.23,81.67 -228.43,194.7l-2.85 10.67 -2.86 26.67c0,46.45 -3.91,115.37 19.99,160.03 28.7,80.44 95.18,133.58 185.59,154.69l19.99 2.66 111.36 0c73.09,-6.82 135.87,-26.4 205.58,-42.67l11.42 0 2.85 2.67 2.86 2.66c39.33,18.38 73.7,26.58 117.07,34.68l28.55 2.66 94.68 0c0.03,34.63 0.03,69.1 0.03,103.38zm1670.36 -610.77c-12.17,90.95 -46.13,122.14 -128.49,130.69 -45.08,0 -89.46,-5.33 -134.2,-5.33l0 -357.4c34.85,0 90.61,-26.11 128.5,-32 114.64,0 129.33,88.5 137.05,189.36l0 48.01 -2.86 26.67zm-1062.17 170.7c6.63,-30.98 14.92,-41.73 48.54,-48.01 58.59,-7.82 118.12,-9.89 177.03,-16l0 122.68 -8.57 0c-50.84,11.88 -101.95,19.94 -154.19,24.01l-28.55 0c-24.35,-5.68 -29.64,-23.72 -34.26,-45.34l0 -37.34zm-931.32 93.99c-53.42,16.63 -121.58,24 -177.03,24 -27.4,-5.12 -34.59,-17.52 -39.98,-42.67 -2.99,-16.79 -2.99,-28.56 0,-45.34 9.56,-35.71 27.77,-39.44 65.68,-45.34 50.46,-3.37 100.86,-7.53 151.33,-10.67l8.56 -2.67 0 18.67 0 40.01 0 64.01 -8.56 0zm2557.29 88c9.7,-36.18 27.64,-40.9 65.8,-48.02 53.12,-3.8 111.22,-3.66 163.09,-13.33l0 122.69c-41.03,0 -89,16.92 -131.61,21.33l-37.2 2.67c-17.48,0 -28.31,1.07 -42.92,-8 -19.51,-18.2 -17.16,-55.18 -17.16,-77.34z"/>
  </g>
 </g>
</svg>
