<?xml version="1.0" encoding="UTF-8"?>
<svg xmlns="http://www.w3.org/2000/svg" xmlns:xlink="http://www.w3.org/1999/xlink" width="906.52pt" height="689.19pt" viewBox="0 0 906.52 689.19" version="1.1">
<defs>
<clipPath id="clip1">
  <path d="M 0 525 L 162 525 L 162 689.191406 L 0 689.191406 Z M 0 525 "/>
</clipPath>
<clipPath id="clip2">
  <path d="M 770 566 L 906.519531 566 L 906.519531 686 L 770 686 Z M 770 566 "/>
</clipPath>
</defs>
<g id="surface1">
<path style=" stroke:none;fill-rule:nonzero;fill:rgb(4.699707%,48.199463%,36.099243%);fill-opacity:1;" d="M 696.757813 236.21875 L 696.757813 180.191406 C 403.1875 376.339844 327.121094 311.039063 327.121094 311.039063 C 285.742188 277.601563 353.785156 236.21875 353.785156 236.21875 C 654.097656 114.796875 763.488281 130.785156 763.488281 130.785156 C 858.613281 142.066406 696.757813 236.21875 696.757813 236.21875 M 816.195313 116.792969 C 711.449219 76.75 376.484375 205.554688 376.484375 205.554688 C 484.570313 92.085938 690.117188 41.386719 690.117188 41.386719 L 690.980469 0 C 366.261719 81.839844 287.972656 245.570313 287.972656 245.570313 L 75.339844 355.894531 L 75.339844 359.472656 L 281.742188 268.726563 C 266.648438 373.71875 309.304688 398.628906 309.304688 398.628906 L 314.671875 405.707031 L 455.226563 399.523438 C 629.613281 332.777344 698.996094 282.960938 698.996094 282.960938 C 892.941406 153.90625 816.195313 116.792969 816.195313 116.792969 "/>
<path style=" stroke:none;fill-rule:evenodd;fill:rgb(10.598755%,22.698975%,41.598511%);fill-opacity:1;" d="M 626.8125 450.511719 L 637.257813 427.394531 L 648.230469 450.511719 Z M 674.164063 469.179688 L 648.160156 469.179688 L 648.160156 467.179688 C 652.546875 467.179688 654.746094 466.234375 654.746094 464.296875 C 654.746094 463.457031 654.429688 462.355469 653.78125 460.972656 L 649.859375 453.109375 L 626.003906 453.109375 L 622.808594 460.667969 C 622.222656 462.148438 621.925781 463.261719 621.925781 463.992188 C 621.925781 466.136719 624.09375 467.191406 628.441406 467.191406 L 628.441406 469.179688 L 611.101563 469.179688 L 611.101563 467.179688 C 613.476563 466.699219 615.269531 465.902344 616.503906 464.777344 C 617.753906 463.667969 618.820313 462.148438 619.769531 460.222656 L 635.933594 424.199219 C 635.386719 422.765625 634.867188 421.984375 634.367188 421.828125 C 636.386719 420.101563 637.980469 418.617188 639.113281 417.386719 C 639.652344 416.890625 640.269531 416.238281 640.929688 415.425781 C 641.597656 414.609375 642.046875 414.203125 642.296875 414.203125 C 642.695313 414.199219 643.089844 414.621094 643.492188 415.457031 L 664.464844 458.589844 C 665.75 461.550781 666.804688 463.589844 667.648438 464.664063 C 668.789063 466.105469 670.960938 466.941406 674.15625 467.191406 Z M 586.269531 422.617188 C 587.210938 424.207031 587.703125 426.382813 587.75 429.09375 C 587.75 433.9375 585.878906 437.316406 582.117188 439.257813 C 579.546875 440.339844 575.699219 440.949219 570.550781 441.097656 C 570.054688 441.003906 569.269531 440.949219 568.183594 440.949219 L 568.183594 417.242188 C 572.339844 417.242188 575.339844 417.328125 577.222656 417.488281 C 579.101563 417.671875 580.636719 418.050781 581.828125 418.636719 C 583.851563 419.683594 585.335938 421 586.269531 422.617188 M 608.433594 469.179688 L 590.9375 469.179688 L 580.265625 448.359375 C 579.136719 446.097656 578.121094 444.632813 577.253906 443.960938 C 576.394531 443.296875 575.328125 442.957031 574.046875 442.957031 L 572.699219 442.953125 L 568.183594 442.953125 L 568.183594 460.367188 C 568.183594 462.441406 568.289063 463.914063 568.523438 464.777344 C 568.738281 465.648438 569.390625 466.277344 570.480469 466.671875 C 571.5625 467.066406 573.328125 467.234375 575.738281 467.191406 L 575.738281 469.179688 L 550.835938 469.179688 L 550.835938 467.179688 C 553.757813 467.179688 555.589844 466.886719 556.367188 466.265625 C 557.125 465.648438 557.507813 463.78125 557.507813 460.683594 L 557.511719 423.46875 C 557.511719 420.746094 557.144531 419.027344 556.410156 418.304688 C 555.660156 417.59375 553.8125 417.242188 550.835938 417.242188 L 550.835938 415.15625 L 573.589844 415.15625 C 578.042969 415.15625 582.117188 415.601563 585.824219 416.460938 C 589.53125 417.328125 592.605469 418.960938 595.054688 421.351563 C 597.496094 423.746094 598.757813 426.957031 598.789063 430.953125 C 598.835938 434.601563 597.394531 437.277344 594.464844 438.96875 C 591.515625 440.628906 588.765625 441.542969 586.210938 441.699219 L 586.210938 441.992188 C 587.089844 442.34375 587.792969 442.828125 588.308594 443.472656 C 588.828125 444.109375 589.347656 444.9375 589.890625 445.925781 L 599.171875 461.105469 C 600.511719 463.242188 601.472656 464.660156 602.09375 465.382813 C 602.710938 466.085938 603.421875 466.558594 604.242188 466.75 C 605.066406 466.941406 606.460938 467.089844 608.433594 467.191406 Z M 545.957031 430.277344 C 540.753906 421.589844 534.582031 417.242188 527.417969 417.242188 C 526.226563 417.234375 525.488281 417.386719 525.164063 417.683594 C 524.84375 417.972656 524.679688 418.746094 524.679688 419.980469 L 524.679688 460.972656 C 524.679688 463.535156 525.074219 465.21875 525.863281 466.011719 C 526.703125 466.800781 529.109375 467.191406 533.058594 467.191406 L 533.058594 469.179688 L 505.414063 469.179688 L 505.414063 467.179688 C 507.9375 467.179688 509.707031 467.089844 510.753906 466.90625 C 511.777344 466.699219 512.554688 466.207031 513.042969 465.421875 C 513.539063 464.617188 513.78125 463.320313 513.78125 461.484375 L 513.78125 420.425781 C 513.78125 419.136719 513.621094 418.285156 513.300781 417.875 C 512.980469 417.445313 512.230469 417.242188 511.046875 417.242188 C 507.140625 417.234375 503.566406 418.472656 500.296875 420.933594 C 497.039063 423.414063 494.449219 426.527344 492.507813 430.277344 L 490.808594 429.839844 L 494.148438 414.050781 L 496.882813 414.050781 C 497.628906 414.796875 499.039063 415.160156 501.113281 415.160156 L 536.976563 415.15625 C 539.550781 415.15625 541.078125 414.796875 541.574219 414.050781 L 544.472656 414.050781 L 547.648438 429.839844 Z M 487.925781 417.234375 C 485.398438 417.234375 483.605469 417.652344 482.550781 418.425781 C 481.496094 419.210938 480.957031 421 480.957031 423.75 L 480.957031 451.859375 C 480.957031 455.910156 480.113281 459.175781 478.425781 461.675781 C 476.75 464.164063 474.140625 466.183594 470.5625 467.703125 C 466.613281 469.394531 461.65625 470.230469 455.683594 470.230469 L 454.046875 470.230469 C 438.046875 469.839844 430.039063 463.21875 430.039063 450.375 L 430.039063 424.058594 C 430.039063 421.144531 429.546875 419.273438 428.550781 418.46875 C 427.5625 417.652344 425.976563 417.242188 423.800781 417.242188 L 423.800781 415.15625 L 448.410156 415.15625 L 448.410156 417.234375 C 447.429688 417.234375 446.710938 417.277344 446.265625 417.386719 C 444.046875 417.386719 442.5625 417.695313 441.824219 418.304688 C 441.078125 418.933594 440.703125 420.609375 440.703125 423.304688 L 440.703125 449.480469 C 440.703125 455.910156 442.046875 460.589844 444.753906 463.527344 C 447.4375 466.464844 451.648438 468.003906 457.382813 468.160156 C 460.847656 468.292969 464.136719 467.820313 467.28125 466.71875 C 470.425781 465.605469 473.003906 463.8125 475.03125 461.339844 C 477.039063 458.867188 478.070313 455.882813 478.070313 452.371094 L 478.070313 424.355469 C 478.070313 421.492188 477.460938 419.5625 476.253906 418.574219 C 475.042969 417.578125 472.851563 417.136719 469.679688 417.242188 L 469.679688 415.15625 L 487.925781 415.15625 Z M 402.917969 419.949219 C 405.878906 421.746094 407.335938 424.652344 407.289063 428.652344 C 407.136719 436.851563 402.597656 440.949219 393.640625 440.949219 L 387.273438 440.949219 L 387.273438 421.984375 C 387.273438 419.859375 387.554688 418.53125 388.128906 418.019531 C 388.691406 417.488281 390.019531 417.234375 392.097656 417.242188 C 396.332031 417.242188 399.945313 418.132813 402.917969 419.949219 M 413.441406 439.886719 C 410.421875 441.917969 405.394531 442.957031 398.3125 442.957031 L 387.273438 442.953125 L 387.273438 460.972656 C 387.273438 463.039063 387.5 464.484375 387.933594 465.300781 C 388.382813 466.117188 389.128906 466.632813 390.164063 466.867188 C 391.199219 467.089844 393.058594 467.191406 395.714844 467.191406 L 395.714844 469.179688 L 368.890625 469.179688 L 368.890625 467.179688 C 371.464844 467.179688 373.234375 467.035156 374.238281 466.71875 C 375.21875 466.382813 375.851563 465.730469 376.160156 464.742188 C 376.460938 463.746094 376.605469 462.148438 376.605469 459.933594 L 376.605469 424.355469 C 376.605469 422.128906 376.472656 420.550781 376.203125 419.617188 C 375.910156 418.671875 375.28125 418.046875 374.265625 417.71875 C 373.246094 417.402344 371.464844 417.242188 368.886719 417.242188 L 368.890625 415.15625 L 393.796875 415.15625 C 398.285156 415.15625 402.382813 415.683594 406.066406 416.710938 C 409.734375 417.757813 412.679688 419.476563 414.882813 421.871094 C 417.085938 424.265625 418.148438 427.292969 418.117188 430.953125 C 418.015625 434.855469 416.441406 437.824219 413.441406 439.886719 M 363.414063 417.234375 C 361.132813 417.1875 359.464844 417.339844 358.40625 417.683594 C 357.351563 418.027344 356.660156 418.660156 356.355469 419.574219 C 356.066406 420.488281 355.921875 421.878906 355.921875 423.75 L 355.921875 460.667969 C 355.921875 463.632813 356.351563 465.460938 357.226563 466.160156 C 358.074219 466.851563 360.148438 467.191406 363.414063 467.191406 L 363.414063 469.179688 L 337.695313 469.179688 L 337.695313 467.179688 C 340.109375 467.089844 341.726563 466.96875 342.535156 466.820313 C 343.367188 466.671875 344.003906 466.207031 344.46875 465.421875 C 344.9375 464.617188 345.171875 463.320313 345.171875 461.484375 L 345.171875 424.355469 C 345.171875 422.078125 345.027344 420.46875 344.683594 419.503906 C 344.371094 418.53125 343.707031 417.894531 342.703125 417.574219 C 341.675781 417.253906 340.003906 417.136719 337.691406 417.242188 L 337.695313 415.15625 L 363.414063 415.15625 Z M 330.132813 433.171875 L 327.691406 433.171875 C 325.414063 428.035156 322.332031 423.910156 318.453125 420.796875 C 314.585938 417.675781 310.320313 416.152344 305.675781 416.195313 C 299.398438 416.195313 294.585938 418.261719 291.257813 422.425781 C 287.933594 426.570313 286.230469 432.761719 286.183594 440.949219 C 286.023438 448.710938 287.324219 455.199219 290.074219 460.367188 C 292.8125 465.558594 297.144531 468.160156 303.085938 468.160156 C 308.558594 468.160156 313.621094 466.558594 318.273438 463.335938 C 322.914063 460.117188 326.195313 455.949219 328.136719 450.808594 L 329.828125 450.804688 L 329.828125 470.230469 L 328.578125 470.230469 C 326.992188 467.609375 325.535156 466.296875 324.210938 466.296875 C 323.808594 466.296875 322.285156 466.78125 319.601563 467.703125 C 317.039063 468.496094 314.460938 469.109375 311.898438 469.558594 C 309.324219 470.003906 306.390625 470.230469 303.085938 470.230469 C 298.398438 470.320313 293.835938 469.164063 289.441406 466.71875 C 285.046875 464.265625 281.480469 460.898438 278.726563 456.628906 C 275.992188 452.351563 274.601563 447.578125 274.546875 442.292969 C 274.546875 437.105469 275.894531 432.347656 278.578125 428.019531 C 281.273438 423.703125 284.828125 420.304688 289.222656 417.875 C 293.625 415.425781 298.183594 414.203125 302.925781 414.203125 C 306.890625 414.199219 309.828125 414.417969 311.792969 414.835938 C 313.746094 415.253906 315.859375 415.8125 318.152344 416.535156 C 320.460938 417.253906 322.519531 417.652344 324.355469 417.683594 C 325.390625 417.675781 326.167969 417.515625 326.6875 417.195313 C 327.203125 416.878906 327.738281 416.125 328.273438 414.945313 L 330.132813 414.9375 Z M 254.152344 485.660156 L 694.558594 485.660156 L 694.558594 398.628906 L 254.152344 398.628906 Z M 254.152344 485.660156 "/>
<g clip-path="url(#clip1)" clip-rule="nonzero">
<path style=" stroke:none;fill-rule:nonzero;fill:rgb(12.199402%,19.599915%,39.599609%);fill-opacity:1;" d="M 154.8125 581.207031 C 148.191406 566.238281 139.230469 554.222656 127.933594 545.148438 C 116.628906 536.078125 104.214844 531.617188 90.683594 531.761719 C 72.402344 531.761719 58.40625 537.808594 48.6875 549.902344 C 38.96875 561.988281 34.039063 579.984375 33.898438 603.878906 C 33.464844 626.480469 37.246094 645.339844 45.234375 660.457031 C 53.21875 675.566406 65.855469 683.128906 83.125 683.128906 C 99.105469 683.128906 113.859375 678.453125 127.394531 669.09375 C 140.921875 659.738281 150.496094 647.578125 156.109375 632.601563 L 161.078125 632.601563 L 161.078125 689.175781 L 157.402344 689.175781 C 152.800781 681.542969 148.554688 677.734375 144.664063 677.734375 C 143.511719 677.734375 139.050781 679.105469 131.28125 681.832031 C 123.792969 684.136719 116.308594 685.9375 108.824219 687.230469 C 101.335938 688.527344 92.769531 689.175781 83.125 689.175781 C 69.449219 689.457031 56.207031 686.046875 43.398438 678.917969 C 30.585938 671.789063 20.183594 662.007813 12.199219 649.550781 C 4.207031 637.101563 0.136719 623.175781 0 607.769531 C 0 592.652344 3.917969 578.800781 11.765625 566.203125 C 19.609375 553.609375 29.9375 543.742188 42.75 536.621094 C 55.558594 529.492188 68.875 525.933594 82.699219 525.933594 C 94.210938 525.933594 102.8125 526.546875 108.5 527.765625 C 114.183594 528.992188 120.378906 530.648438 127.066406 532.734375 C 133.765625 534.820313 139.769531 535.9375 145.097656 536.078125 C 148.121094 536.078125 150.386719 535.613281 151.898438 534.675781 C 153.410156 533.742188 154.953125 531.542969 156.542969 528.089844 L 161.941406 528.089844 L 161.941406 581.207031 "/>
</g>
<path style=" stroke:none;fill-rule:nonzero;fill:rgb(12.199402%,19.599915%,39.599609%);fill-opacity:1;" d="M 219.292969 667.101563 C 219.292969 673.5 220.226563 677.457031 222.09375 678.945313 C 223.957031 680.441406 228.414063 681.1875 235.457031 681.1875 L 235.457031 685.511719 L 179.921875 685.511719 L 179.921875 681.1875 C 185.148438 680.980469 188.644531 680.707031 190.402344 680.390625 C 192.164063 680.074219 193.550781 679.050781 194.566406 677.351563 C 195.578125 675.640625 196.085938 672.816406 196.085938 668.867188 L 196.085938 588.679688 C 196.085938 583.773438 195.738281 580.277344 195.046875 578.195313 C 194.347656 576.117188 192.910156 574.734375 190.722656 574.035156 C 188.539063 573.339844 184.933594 573.101563 179.921875 573.3125 L 179.921875 568.835938 L 235.457031 568.835938 L 235.457031 573.3125 C 230.546875 573.207031 226.945313 573.53125 224.652344 574.273438 C 222.359375 575.023438 220.890625 576.382813 220.25 578.355469 C 219.613281 580.332031 219.292969 583.347656 219.292969 587.394531 "/>
<path style=" stroke:none;fill-rule:nonzero;fill:rgb(12.199402%,19.599915%,39.599609%);fill-opacity:1;" d="M 286.992188 583.554688 L 286.992188 624.527344 L 300.757813 624.527344 C 320.066406 624.527344 329.882813 615.675781 330.203125 597.960938 C 330.308594 589.320313 327.164063 583.050781 320.765625 579.15625 C 314.359375 575.261719 306.570313 573.3125 297.394531 573.3125 C 292.914063 573.3125 290.054688 573.875 288.832031 574.996094 C 287.605469 576.117188 286.992188 578.96875 286.992188 583.554688 M 263.945313 588.679688 C 263.945313 583.878906 263.648438 580.464844 263.0625 578.4375 C 262.476563 576.410156 261.09375 575.050781 258.902344 574.351563 C 256.71875 573.660156 252.847656 573.3125 247.300781 573.3125 L 247.300781 568.835938 L 301.074219 568.835938 C 310.78125 568.835938 319.613281 569.957031 327.5625 572.195313 C 335.511719 574.433594 341.859375 578.144531 346.609375 583.316406 C 351.355469 588.492188 353.675781 595.027344 353.566406 602.917969 C 353.355469 611.355469 349.992188 617.777344 343.484375 622.203125 C 336.976563 626.636719 326.097656 628.851563 310.839844 628.851563 L 286.992188 628.851563 L 286.992188 667.746094 C 286.992188 672.222656 287.472656 675.347656 288.433594 677.101563 C 289.394531 678.863281 290.992188 679.984375 293.230469 680.46875 C 295.472656 680.953125 299.472656 681.1875 305.238281 681.1875 L 305.238281 685.511719 L 247.300781 685.511719 L 247.300781 681.1875 C 252.847656 681.1875 256.6875 680.839844 258.820313 680.152344 C 260.957031 679.457031 262.34375 678.042969 262.984375 675.90625 C 263.621094 673.769531 263.945313 670.304688 263.945313 665.507813 "/>
<path style=" stroke:none;fill-rule:nonzero;fill:rgb(12.199402%,19.599915%,39.599609%);fill-opacity:1;" d="M 379.339844 588.039063 C 379.339844 581.742188 378.269531 577.714844 376.136719 575.953125 C 373.996094 574.195313 370.585938 573.3125 365.894531 573.3125 L 365.894531 568.835938 L 419.027344 568.835938 L 419.027344 573.3125 C 416.890625 573.3125 415.347656 573.421875 414.382813 573.636719 C 409.585938 573.636719 406.382813 574.304688 404.785156 575.636719 C 403.183594 576.972656 402.378906 580.570313 402.378906 586.433594 L 402.378906 642.941406 C 402.378906 656.808594 405.289063 666.921875 411.105469 673.265625 C 416.914063 679.617188 426.011719 682.949219 438.390625 683.269531 C 445.863281 683.585938 452.980469 682.550781 459.753906 680.152344 C 466.53125 677.746094 472.105469 673.878906 476.476563 668.546875 C 480.851563 663.210938 483.039063 656.753906 483.039063 649.175781 L 483.039063 588.679688 C 483.039063 582.496094 481.734375 578.332031 479.121094 576.195313 C 476.503906 574.058594 471.785156 573.101563 464.953125 573.3125 L 464.953125 568.835938 L 504.328125 568.835938 L 504.328125 573.3125 C 498.882813 573.3125 495.019531 574.171875 492.726563 575.875 C 490.429688 577.582031 489.28125 581.425781 489.28125 587.394531 L 489.28125 648.054688 C 489.28125 656.808594 487.464844 663.878906 483.839844 669.265625 C 480.214844 674.652344 474.5625 679.003906 466.875 682.308594 C 458.339844 685.9375 447.621094 687.753906 434.714844 687.753906 L 431.1875 687.753906 C 396.621094 686.898438 379.339844 672.601563 379.339844 644.859375 "/>
<path style=" stroke:none;fill-rule:nonzero;fill:rgb(12.199402%,19.599915%,39.599609%);fill-opacity:1;" d="M 560.175781 580.195313 C 560.175781 577.421875 559.828125 575.585938 559.140625 574.675781 C 558.441406 573.769531 556.820313 573.3125 554.257813 573.3125 C 545.828125 573.3125 538.097656 575.984375 531.050781 581.316406 C 524.011719 586.652344 518.410156 593.378906 514.246094 601.484375 L 510.566406 600.523438 L 517.769531 566.433594 L 523.691406 566.433594 C 525.289063 568.035156 528.335938 568.835938 532.8125 568.835938 L 610.277344 568.835938 C 615.824219 568.835938 619.125 568.035156 620.199219 566.433594 L 626.4375 566.433594 L 633.320313 600.523438 L 629.644531 601.484375 C 618.4375 582.703125 605.097656 573.3125 589.628906 573.3125 C 587.066406 573.3125 585.4375 573.636719 584.746094 574.273438 C 584.050781 574.914063 583.707031 576.570313 583.707031 579.238281 L 583.707031 667.746094 C 583.707031 673.292969 584.558594 676.917969 586.265625 678.628906 C 588.078125 680.335938 593.257813 681.1875 601.792969 681.1875 L 601.792969 685.511719 L 542.097656 685.511719 L 542.097656 681.1875 C 547.539063 681.1875 551.378906 680.980469 553.617188 680.550781 C 555.855469 680.121094 557.511719 679.050781 558.578125 677.351563 C 559.644531 675.640625 560.175781 672.816406 560.175781 668.867188 "/>
<path style=" stroke:none;fill-rule:nonzero;fill:rgb(12.199402%,19.599915%,39.599609%);fill-opacity:1;" d="M 677.652344 573.3125 L 677.652344 624.527344 C 680 624.527344 681.707031 624.640625 682.773438 624.847656 C 693.871094 624.527344 702.191406 623.195313 707.742188 620.847656 C 715.847656 616.683594 719.902344 609.378906 719.902344 598.921875 C 719.796875 593.054688 718.726563 588.386719 716.703125 584.917969 C 714.675781 581.453125 711.476563 578.59375 707.101563 576.355469 C 704.542969 575.078125 701.234375 574.25 697.179688 573.875 C 693.117188 573.5 686.617188 573.3125 677.652344 573.3125 M 654.605469 586.761719 C 654.605469 580.894531 653.808594 577.183594 652.207031 575.636719 C 650.605469 574.089844 646.605469 573.3125 640.199219 573.3125 L 640.199219 568.835938 L 689.339844 568.835938 C 698.9375 568.835938 707.742188 569.769531 715.746094 571.632813 C 723.746094 573.5 730.386719 577.023438 735.671875 582.195313 C 740.957031 587.375 743.644531 594.277344 743.753906 602.917969 C 743.859375 610.816406 740.734375 616.578125 734.390625 620.210938 C 728.039063 623.835938 722.089844 625.808594 716.542969 626.132813 L 716.542969 626.773438 C 718.464844 627.515625 719.984375 628.59375 721.105469 629.972656 C 722.222656 631.363281 723.371094 633.121094 724.546875 635.257813 L 744.550781 668.066406 C 747.429688 672.65625 749.542969 675.722656 750.871094 677.269531 C 752.207031 678.8125 753.757813 679.800781 755.515625 680.230469 C 757.273438 680.652344 760.289063 680.980469 764.558594 681.1875 L 764.558594 685.511719 L 726.789063 685.511719 L 703.738281 640.535156 C 701.285156 635.628906 699.125 632.453125 697.261719 631.011719 C 695.386719 629.578125 693.070313 628.851563 690.296875 628.851563 L 677.652344 628.851563 L 677.652344 666.46875 C 677.652344 670.945313 677.890625 674.117188 678.371094 675.984375 C 678.855469 677.855469 680.265625 679.214844 682.617188 680.074219 C 684.964844 680.925781 688.746094 681.292969 693.976563 681.1875 L 693.976563 685.511719 L 640.199219 685.511719 L 640.199219 681.1875 C 646.496094 681.1875 650.472656 680.523438 652.128906 679.191406 C 653.777344 677.855469 654.605469 673.824219 654.605469 667.101563 "/>
<g clip-path="url(#clip2)" clip-rule="nonzero">
<path style=" stroke:none;fill-rule:nonzero;fill:rgb(12.199402%,19.599915%,39.599609%);fill-opacity:1;" d="M 850.5 645.175781 L 826.816406 595.242188 L 804.246094 645.175781 Z M 823.933594 588.359375 C 822.761719 585.269531 821.636719 583.554688 820.570313 583.238281 C 824.945313 579.503906 828.359375 576.300781 830.816406 573.636719 C 831.988281 572.570313 833.296875 571.15625 834.730469 569.394531 C 836.175781 567.632813 837.160156 566.753906 837.695313 566.753906 C 838.550781 566.753906 839.402344 567.660156 840.257813 569.476563 L 885.546875 662.617188 C 888.320313 669.019531 890.621094 673.398438 892.4375 675.746094 C 894.886719 678.839844 899.578125 680.652344 906.515625 681.1875 L 906.515625 685.511719 L 850.34375 685.511719 L 850.34375 681.1875 C 859.835938 681.1875 864.582031 679.109375 864.582031 674.945313 C 864.582031 673.136719 863.890625 670.734375 862.5 667.746094 L 854.019531 650.78125 L 802.484375 650.78125 L 795.605469 667.101563 C 794.324219 670.304688 793.683594 672.707031 793.683594 674.304688 C 793.683594 678.894531 798.375 681.1875 807.765625 681.1875 L 807.765625 685.511719 L 770.3125 685.511719 L 770.3125 681.1875 C 775.441406 680.121094 779.328125 678.386719 782.003906 675.984375 C 784.664063 673.585938 787.019531 670.304688 789.042969 666.144531 "/>
</g>
</g>
</svg>
