<?xml version="1.0" encoding="UTF-8"?>
<!DOCTYPE svg PUBLIC "-//W3C//DTD SVG 1.1//EN" "http://www.w3.org/Graphics/SVG/1.1/DTD/svg11.dtd">
<!-- Creator: CorelDRAW X5 -->
<svg xmlns="http://www.w3.org/2000/svg" xml:space="preserve" width="210mm" height="110.683mm" style="shape-rendering:geometricPrecision; text-rendering:geometricPrecision; image-rendering:optimizeQuality; fill-rule:evenodd; clip-rule:evenodd"
viewBox="0 0 21000 11068"
 xmlns:xlink="http://www.w3.org/1999/xlink"
 xmlns:svg="http://www.w3.org/2000/svg">
 <defs>
  <style type="text/css">
   <![CDATA[
    .fil0 {fill:#049FD9;fill-rule:nonzero}
   ]]>
  </style>
 </defs>
 <g id="Layer_x0020_1">
  <metadata id="CorelCorpID_0Corel-Layer"/>
  <path id="path10" class="fil0" d="M10352 7405c-27,-8 -449,-116 -898,-116 -849,0 -1360,458 -1360,1141 0,604 428,905 941,1067 57,19 141,45 196,63 228,72 411,179 411,364 0,207 -211,341 -669,341 -403,0 -788,-115 -870,-136l0 840c45,10 504,100 994,100 705,0 1511,-308 1511,-1225 0,-445 -272,-854 -870,-1044l-254 -81c-152,-48 -422,-125 -422,-347 0,-175 200,-299 570,-299 319,0 706,107 720,111l0 -779zm7782 1774c0,531 -407,960 -952,960 -546,0 -952,-430 -952,-960 0,-530 406,-960 952,-960 546,0 952,430 952,960m-952 -1889c-1122,0 -1927,847 -1927,1889 0,1044 805,1890 1927,1890 1122,0 1928,-846 1928,-1890 0,-1042 -806,-1889 -1928,-1889m-10321 3714l-921 0 0 -3649 921 0m0 3649l0 0 0 0z"/>
  <path id="path12" class="fil0" d="M4673 7421c-87,-26 -406,-131 -840,-131 -1121,0 -1943,799 -1943,1889 0,1176 908,1890 1943,1890 411,0 725,-97 840,-130l0 -980c-40,22 -341,194 -774,194 -613,0 -1009,-432 -1009,-974 0,-559 413,-973 1009,-973 440,0 737,176 774,195m0 -980l0 0 0 0z"/>
  <path class="fil0" d="M14285 7421c-87,-26 -406,-131 -840,-131 -1121,0 -1943,799 -1943,1889 0,1176 908,1890 1943,1890 411,0 725,-97 840,-130l0 -980c-40,22 -341,194 -774,194 -613,0 -1009,-432 -1009,-974 0,-559 413,-973 1009,-973 440,0 737,176 774,195m0 -980l0 0 0 0z"/>
  <path id="path16" class="fil0" d="M5936 455c0,-252 -205,-455 -457,-455 -252,0 -457,204 -457,455l0 4846c0,253 205,457 457,457 252,0 457,-204 457,-457l0 -4846zm-2511 1720c0,-251 -205,-456 -457,-456 -252,0 -457,204 -457,456l0 2215c0,253 205,457 457,457 252,0 457,-204 457,-457l0 -2215zm-2511 1257c0,-252 -205,-455 -457,-455 -252,0 -457,204 -457,455l0 958c0,253 206,457 457,457 252,0 457,-204 457,-457m0 -958l0 0 0 0z"/>
  <path class="fil0" d="M5022 455c0,-252 205,-455 457,-455 252,0 457,204 457,455l0 4846c0,253 -205,457 -457,457 -252,0 -457,-204 -457,-457l0 -4846zm2511 1720c0,-251 205,-456 457,-456 252,0 457,204 457,456l0 2215c0,253 -205,457 -457,457 -252,0 -457,-204 -457,-457l0 -2215zm2511 1257c0,-252 205,-455 457,-455 251,0 457,204 457,455l0 958c0,253 -206,457 -457,457 -252,0 -457,-204 -457,-457m0 -958l0 0 0 0z"/>
  <path class="fil0" d="M15064 455c0,-252 205,-455 457,-455 252,0 457,204 457,455l0 4846c0,253 -205,457 -457,457 -252,0 -457,-204 -457,-457l0 -4846zm2511 1720c0,-251 205,-456 457,-456 252,0 457,204 457,456l0 2215c0,253 -205,457 -457,457 -252,0 -457,-204 -457,-457l0 -2215zm2511 1257c0,-252 205,-455 457,-455 252,0 457,204 457,455l0 958c0,253 -206,457 -457,457 -252,0 -457,-204 -457,-457m0 -958l0 0 0 0z"/>
  <path class="fil0" d="M15978 455c0,-252 -205,-455 -457,-455 -252,0 -457,204 -457,455l0 4846c0,253 205,457 457,457 252,0 457,-204 457,-457l0 -4846zm-2511 1720c0,-251 -205,-456 -457,-456 -252,0 -457,204 -457,456l0 2215c0,253 205,457 457,457 252,0 457,-204 457,-457l0 -2215zm-2511 1257c0,-252 -205,-455 -457,-455 -251,0 -457,204 -457,455l0 958c0,253 206,457 457,457 252,0 457,-204 457,-457m0 -958l0 0 0 0z"/>
 </g>
</svg>
