<?xml version="1.0" encoding="UTF-8"?>
<svg xmlns="http://www.w3.org/2000/svg" xmlns:xlink="http://www.w3.org/1999/xlink" width="749.72pt" height="512.68pt" viewBox="0 0 749.72 512.68" version="1.1">
<defs>
<clipPath id="clip1">
  <path d="M 303 478 L 338 478 L 338 512.679688 L 303 512.679688 Z M 303 478 "/>
</clipPath>
<clipPath id="clip2">
  <path d="M 507 0 L 749.71875 0 L 749.71875 239 L 507 239 Z M 507 0 "/>
</clipPath>
</defs>
<g id="surface1">
<path style=" stroke:none;fill-rule:nonzero;fill:rgb(0%,23.498535%,49.798584%);fill-opacity:1;" d="M 3.84375 499.730469 C 3.84375 498.820313 3.996094 497.804688 4.199219 496.996094 L 8.296875 481.71875 L 4.707031 481.71875 L 5.617188 478.28125 L 9.257813 478.28125 L 11.382813 470.386719 L 15.226563 470.386719 L 13.101563 478.28125 L 21.347656 478.28125 L 20.4375 481.71875 L 12.191406 481.71875 L 8.144531 496.792969 C 8.042969 497.402344 7.941406 498.160156 7.941406 498.71875 C 7.941406 500.539063 9.308594 501.398438 11.535156 501.398438 C 12.699219 501.398438 13.910156 501.144531 15.328125 500.589844 L 14.367188 504.128906 C 13 504.6875 11.734375 504.890625 10.21875 504.890625 C 6.476563 504.890625 3.84375 503.117188 3.84375 499.730469 "/>
<path style=" stroke:none;fill-rule:nonzero;fill:rgb(0%,23.498535%,49.798584%);fill-opacity:1;" d="M 31.058594 467.503906 L 34.957031 467.503906 L 30.90625 482.527344 C 33.285156 479.847656 36.019531 477.722656 40.015625 477.722656 C 45.074219 477.722656 48.359375 480.859375 48.359375 485.816406 C 48.359375 487.03125 48.058594 488.496094 47.703125 489.863281 L 43.859375 504.433594 L 39.964844 504.433594 L 43.910156 489.613281 C 44.164063 488.75 44.316406 487.539063 44.316406 486.675781 C 44.316406 483.238281 42.089844 481.210938 38.445313 481.210938 C 34.398438 481.210938 30.351563 484.703125 28.984375 489.660156 L 25.039063 504.433594 L 21.144531 504.433594 L 31.058594 467.503906 "/>
<path style=" stroke:none;fill-rule:nonzero;fill:rgb(0%,23.498535%,49.798584%);fill-opacity:1;" d="M 75.019531 489.761719 C 75.171875 489.308594 75.273438 488.648438 75.273438 487.738281 C 75.273438 484.148438 73.25 481.011719 68.746094 481.011719 C 63.585938 481.011719 59.640625 484.957031 58.226563 489.761719 Z M 57.617188 493.757813 C 57.617188 498.515625 60.652344 501.652344 65.511719 501.652344 C 68.898438 501.652344 71.175781 500.488281 73.554688 498.566406 L 75.578125 501.144531 C 72.996094 503.320313 69.910156 505.039063 65.308594 505.039063 C 58.378906 505.039063 53.722656 500.539063 53.722656 493.910156 C 53.722656 485.917969 60.199219 477.722656 68.949219 477.722656 C 75.578125 477.722656 79.066406 482.277344 79.066406 487.738281 C 79.066406 489.511719 78.714844 491.179688 78.15625 492.695313 L 57.667969 492.695313 C 57.617188 493.050781 57.617188 493.40625 57.617188 493.757813 "/>
<path style=" stroke:none;fill-rule:nonzero;fill:rgb(0%,23.498535%,49.798584%);fill-opacity:1;" d="M 101.121094 478.28125 L 105.066406 478.28125 L 106.433594 499.121094 L 119.082031 478.179688 L 122.316406 478.179688 L 123.785156 499.121094 L 136.382813 478.28125 L 140.429688 478.28125 L 124.140625 504.636719 L 120.699219 504.636719 L 119.183594 483.996094 L 106.585938 504.636719 L 103.195313 504.636719 L 101.121094 478.28125 "/>
<path style=" stroke:none;fill-rule:nonzero;fill:rgb(0%,23.498535%,49.798584%);fill-opacity:1;" d="M 164.210938 489.5625 C 164.210938 484.25 160.871094 481.164063 156.015625 481.164063 C 149.992188 481.164063 144.835938 487.132813 144.835938 493.203125 C 144.835938 498.515625 148.171875 501.550781 153.027344 501.550781 C 158.898438 501.550781 164.210938 495.78125 164.210938 489.5625 Z M 140.886719 493.304688 C 140.886719 485.160156 147.921875 477.722656 156.265625 477.722656 C 163.449219 477.722656 168.207031 482.628906 168.207031 489.410156 C 168.207031 497.753906 160.972656 505.039063 152.777344 505.039063 C 145.59375 505.039063 140.886719 500.082031 140.886719 493.304688 "/>
<path style=" stroke:none;fill-rule:nonzero;fill:rgb(0%,23.498535%,49.798584%);fill-opacity:1;" d="M 177.511719 478.28125 L 181.40625 478.28125 L 179.636719 485.109375 C 182.824219 480.554688 186.871094 477.519531 192.082031 477.824219 L 190.96875 482.023438 L 190.714844 482.023438 C 185 482.023438 179.28125 486.222656 177.210938 494.113281 L 174.425781 504.433594 L 170.53125 504.433594 L 177.511719 478.28125 "/>
<path style=" stroke:none;fill-rule:nonzero;fill:rgb(0%,23.498535%,49.798584%);fill-opacity:1;" d="M 201.136719 467.503906 L 205.03125 467.503906 L 195.117188 504.433594 L 191.222656 504.433594 L 201.136719 467.503906 "/>
<path style=" stroke:none;fill-rule:nonzero;fill:rgb(0%,23.498535%,49.798584%);fill-opacity:1;" d="M 224.964844 489.257813 C 224.964844 484.703125 221.675781 481.164063 216.867188 481.164063 C 210.648438 481.164063 205.941406 486.929688 205.941406 493.609375 C 205.941406 498.464844 208.976563 501.601563 213.328125 501.601563 C 219.144531 501.601563 224.964844 495.683594 224.964844 489.257813 Z M 201.84375 493.960938 C 201.84375 484.703125 208.875 477.722656 216.515625 477.722656 C 221.878906 477.722656 224.914063 480.757813 226.328125 484.199219 L 230.78125 467.503906 L 234.675781 467.503906 L 224.8125 504.433594 L 220.914063 504.433594 L 222.078125 499.980469 C 219.601563 502.816406 216.414063 505.039063 212.214844 505.039063 C 206.296875 505.039063 201.84375 500.589844 201.84375 493.960938 "/>
<path style=" stroke:none;fill-rule:nonzero;fill:rgb(0%,23.498535%,49.798584%);fill-opacity:1;" d="M 258.5 468.261719 L 262.953125 468.261719 L 261.789063 472.5625 L 257.339844 472.5625 Z M 256.074219 478.28125 L 259.96875 478.28125 L 252.9375 504.433594 L 249.042969 504.433594 L 256.074219 478.28125 "/>
<path style=" stroke:none;fill-rule:nonzero;fill:rgb(0%,23.498535%,49.798584%);fill-opacity:1;" d="M 269.023438 478.28125 L 272.917969 478.28125 L 271.804688 482.527344 C 274.183594 479.847656 276.914063 477.722656 280.910156 477.722656 C 285.96875 477.722656 289.257813 480.859375 289.257813 485.816406 C 289.257813 487.03125 288.953125 488.496094 288.601563 489.863281 L 284.757813 504.433594 L 280.859375 504.433594 L 284.808594 489.613281 C 285.058594 488.75 285.210938 487.539063 285.210938 486.675781 C 285.210938 483.238281 282.984375 481.210938 279.34375 481.210938 C 275.296875 481.210938 271.25 484.703125 269.882813 489.660156 L 265.9375 504.433594 L 262.042969 504.433594 L 269.023438 478.28125 "/>
<g clip-path="url(#clip1)" clip-rule="nonzero">
<path style=" stroke:none;fill-rule:nonzero;fill:rgb(0%,23.498535%,49.798584%);fill-opacity:1;" d="M 303.574219 510.859375 L 305.699219 507.925781 C 306.660156 508.683594 308.429688 509.238281 309.695313 509.238281 C 311.921875 509.238281 313.894531 508.074219 316.523438 504.382813 L 311.769531 478.28125 L 315.816406 478.28125 L 319.457031 500.082031 L 333.519531 478.28125 L 337.921875 478.28125 L 320.015625 505.292969 C 316.320313 510.707031 313.183594 512.679688 309.289063 512.679688 C 307.0625 512.679688 305.242188 512.023438 303.574219 510.859375 "/>
</g>
<path style=" stroke:none;fill-rule:nonzero;fill:rgb(0%,23.498535%,49.798584%);fill-opacity:1;" d="M 361.191406 489.5625 C 361.191406 484.25 357.851563 481.164063 352.996094 481.164063 C 346.976563 481.164063 341.816406 487.132813 341.816406 493.203125 C 341.816406 498.515625 345.152344 501.550781 350.011719 501.550781 C 355.878906 501.550781 361.191406 495.78125 361.191406 489.5625 Z M 337.871094 493.304688 C 337.871094 485.160156 344.902344 477.722656 353.25 477.722656 C 360.433594 477.722656 365.1875 482.628906 365.1875 489.410156 C 365.1875 497.753906 357.953125 505.039063 349.757813 505.039063 C 342.574219 505.039063 337.871094 500.082031 337.871094 493.304688 "/>
<path style=" stroke:none;fill-rule:nonzero;fill:rgb(0%,23.498535%,49.798584%);fill-opacity:1;" d="M 368.574219 496.894531 C 368.574219 495.683594 368.878906 494.214844 369.234375 492.847656 L 373.078125 478.28125 L 376.972656 478.28125 L 372.976563 493.101563 C 372.773438 493.960938 372.621094 495.175781 372.621094 496.035156 C 372.621094 499.476563 374.847656 501.5 378.441406 501.5 C 382.488281 501.5 386.585938 498.007813 387.898438 493 L 391.847656 478.28125 L 395.742188 478.28125 L 388.761719 504.433594 L 384.863281 504.433594 L 386.027344 500.183594 C 383.652344 502.867188 380.867188 504.988281 376.871094 504.988281 C 371.863281 504.988281 368.574219 501.855469 368.574219 496.894531 "/>
<path style=" stroke:none;fill-rule:nonzero;fill:rgb(0%,23.498535%,49.798584%);fill-opacity:1;" d="M 404.492188 478.28125 L 408.386719 478.28125 L 406.617188 485.109375 C 409.804688 480.554688 413.851563 477.519531 419.0625 477.824219 L 417.949219 482.023438 L 417.695313 482.023438 C 411.980469 482.023438 406.261719 486.222656 404.1875 494.113281 L 401.40625 504.433594 L 397.511719 504.433594 L 404.492188 478.28125 "/>
<path style=" stroke:none;fill-rule:nonzero;fill:rgb(0%,23.498535%,49.798584%);fill-opacity:1;" d="M 442.9375 467.503906 L 446.832031 467.503906 L 442.785156 482.527344 C 445.164063 479.847656 447.894531 477.722656 451.890625 477.722656 C 456.949219 477.722656 460.238281 480.859375 460.238281 485.816406 C 460.238281 487.03125 459.933594 488.496094 459.582031 489.863281 L 455.734375 504.433594 L 451.839844 504.433594 L 455.785156 489.613281 C 456.039063 488.75 456.191406 487.539063 456.191406 486.675781 C 456.191406 483.238281 453.964844 481.210938 450.324219 481.210938 C 446.277344 481.210938 442.230469 484.703125 440.863281 489.660156 L 436.917969 504.433594 L 433.023438 504.433594 L 442.9375 467.503906 "/>
<path style=" stroke:none;fill-rule:nonzero;fill:rgb(0%,23.498535%,49.798584%);fill-opacity:1;" d="M 483.914063 494.164063 L 484.417969 492.34375 C 482.140625 491.6875 479.15625 491.179688 475.917969 491.179688 C 471.265625 491.179688 468.078125 493.707031 468.078125 497.300781 C 468.078125 500.082031 470.253906 501.953125 473.644531 501.953125 C 478.042969 501.953125 482.648438 498.769531 483.914063 494.164063 Z M 464.132813 497.753906 C 464.132813 491.886719 469.039063 488.296875 475.769531 488.296875 C 479.257813 488.296875 482.546875 489.003906 485.078125 489.710938 L 485.226563 489.105469 C 485.429688 488.347656 485.582031 487.386719 485.582031 486.675781 C 485.582031 483.289063 483.253906 481.367188 478.5 481.367188 C 475.71875 481.367188 473.441406 481.921875 471.113281 482.730469 L 470.457031 479.492188 C 473.035156 478.53125 475.71875 477.925781 479.105469 477.925781 C 485.683594 477.925781 489.375 480.960938 489.375 486.019531 C 489.375 487.132813 489.171875 488.398438 488.820313 489.613281 L 484.875 504.433594 L 481.078125 504.433594 L 482.191406 500.335938 C 479.765625 503.117188 476.578125 504.988281 472.429688 504.988281 C 468.027344 504.988281 464.132813 502.410156 464.132813 497.753906 "/>
<path style=" stroke:none;fill-rule:nonzero;fill:rgb(0%,23.498535%,49.798584%);fill-opacity:1;" d="M 500.152344 478.28125 L 504.046875 478.28125 L 502.933594 482.527344 C 505.308594 479.847656 508.042969 477.722656 512.039063 477.722656 C 517.097656 477.722656 520.386719 480.859375 520.386719 485.816406 C 520.386719 487.03125 520.082031 488.496094 519.726563 489.863281 L 515.882813 504.433594 L 511.988281 504.433594 L 515.933594 489.613281 C 516.1875 488.75 516.339844 487.539063 516.339844 486.675781 C 516.339844 483.238281 514.113281 481.210938 510.46875 481.210938 C 506.421875 481.210938 502.375 484.703125 501.011719 489.660156 L 497.066406 504.433594 L 493.167969 504.433594 L 500.152344 478.28125 "/>
<path style=" stroke:none;fill-rule:nonzero;fill:rgb(0%,23.498535%,49.798584%);fill-opacity:1;" d="M 548.96875 489.257813 C 548.96875 484.703125 545.679688 481.164063 540.871094 481.164063 C 534.652344 481.164063 529.945313 486.929688 529.945313 493.609375 C 529.945313 498.464844 532.980469 501.601563 537.332031 501.601563 C 543.148438 501.601563 548.96875 495.683594 548.96875 489.257813 Z M 525.847656 493.960938 C 525.847656 484.703125 532.878906 477.722656 540.519531 477.722656 C 545.882813 477.722656 548.917969 480.757813 550.332031 484.199219 L 554.785156 467.503906 L 558.679688 467.503906 L 548.816406 504.433594 L 544.917969 504.433594 L 546.082031 499.980469 C 543.605469 502.816406 540.417969 505.039063 536.21875 505.039063 C 530.300781 505.039063 525.847656 500.589844 525.847656 493.960938 "/>
<path style=" stroke:none;fill-rule:nonzero;fill:rgb(0%,24.299622%,49.398804%);fill-opacity:1;" d="M 627.914063 235.300781 C 634.707031 222.691406 638.558594 208.378906 638.558594 193.195313 C 638.558594 142.546875 595.925781 101.484375 543.335938 101.484375 C 531.0625 101.484375 519.34375 103.746094 508.574219 107.824219 C 509.644531 116.980469 511.652344 126.144531 514.5625 135.144531 C 521.734375 132.34375 529.578125 130.78125 537.816406 130.78125 C 571.652344 130.78125 599.105469 156.941406 599.105469 189.195313 C 599.105469 201.558594 595.054688 213.019531 588.179688 222.460938 C 600.441406 228.429688 614.003906 232.746094 627.914063 235.300781 "/>
<path style=" stroke:none;fill-rule:nonzero;fill:rgb(100%,76.861572%,14.509583%);fill-opacity:1;" d="M 537.816406 130.78125 C 529.578125 130.78125 521.734375 132.34375 514.5625 135.144531 C 524.203125 165.019531 543.617188 193.019531 570.792969 212.261719 C 576.179688 216.074219 582.011719 219.464844 588.179688 222.460938 C 595.054688 213.019531 599.105469 201.558594 599.105469 189.195313 C 599.105469 156.941406 571.652344 130.78125 537.816406 130.78125 "/>
<g clip-path="url(#clip2)" clip-rule="nonzero">
<path style=" stroke:none;fill-rule:nonzero;fill:rgb(100%,76.861572%,14.509583%);fill-opacity:1;" d="M 678.328125 162.578125 C 700.808594 145.335938 757.582031 108.105469 748.808594 92.984375 C 741.703125 80.785156 710.660156 95.527344 675.613281 114.597656 C 648.070313 129.59375 654.023438 111.480469 671.53125 85 C 686.9375 61.707031 710.117188 30.242188 697.203125 21.734375 C 682.160156 11.835938 636.035156 66.644531 625.261719 77.480469 C 614.496094 88.316406 604.601563 94.160156 610.042969 64 C 617.277344 23.949219 618.707031 2.992188 609.726563 0.476563 C 597.105469 -3.058594 589.226563 12.648438 570.371094 56.683594 C 556.835938 88.261719 545.070313 93.847656 543.609375 65.5 C 541.722656 14.59375 528.761719 26.273438 523.792969 34.109375 C 510.132813 55.628906 505.511719 81.660156 508.574219 107.824219 C 519.34375 103.746094 531.0625 101.484375 543.335938 101.484375 C 595.925781 101.484375 638.558594 142.546875 638.558594 193.195313 C 638.558594 208.378906 634.707031 222.691406 627.914063 235.300781 C 657.90625 240.8125 689.527344 238.171875 713.363281 226.3125 C 717.332031 224.328125 726.960938 218.4375 720.960938 210.273438 C 708.988281 193.960938 687.398438 202.519531 664.316406 195.839844 C 644.03125 189.964844 662.082031 175.03125 678.328125 162.578125 "/>
</g>
<path style=" stroke:none;fill-rule:nonzero;fill:rgb(0%,64.299011%,89.399719%);fill-opacity:1;" d="M 588.179688 222.460938 C 577.109375 237.652344 558.683594 247.609375 537.816406 247.609375 C 503.96875 247.609375 476.519531 221.453125 476.519531 189.195313 C 476.519531 164.78125 492.25 143.875 514.5625 135.144531 C 511.652344 126.144531 509.644531 116.980469 508.574219 107.824219 C 473.183594 121.199219 448.121094 154.367188 448.121094 193.195313 C 448.121094 243.839844 490.753906 284.902344 543.335938 284.902344 C 580.160156 284.902344 612.0625 264.757813 627.914063 235.300781 C 614.003906 232.746094 600.441406 228.429688 588.179688 222.460938 "/>
<path style=" stroke:none;fill-rule:nonzero;fill:rgb(0%,23.498535%,49.798584%);fill-opacity:1;" d="M 76.039063 199.464844 C 76.039063 195.847656 72.894531 192.792969 69.160156 192.792969 L 6.878906 192.792969 C 3.160156 192.792969 0 195.847656 0 199.464844 C 0 203.085938 3.085938 206.015625 6.878906 206.015625 L 30.769531 206.015625 L 30.769531 277.605469 C 30.769531 281.5 34.023438 284.667969 38.015625 284.667969 C 42.027344 284.667969 45.285156 281.5 45.285156 277.605469 L 45.285156 206.015625 L 69.160156 206.015625 C 72.960938 206.015625 76.039063 203.085938 76.039063 199.464844 "/>
<path style=" stroke:none;fill-rule:nonzero;fill:rgb(0%,24.299622%,49.398804%);fill-opacity:1;" d="M 96.570313 226.429688 C 108.3125 226.429688 113.859375 235.230469 115.308594 244.179688 L 77.480469 244.179688 C 79.425781 233.621094 87.015625 226.429688 96.570313 226.429688 Z M 96.820313 214.191406 C 77.800781 214.191406 62.894531 229.808594 62.894531 249.742188 L 62.894531 249.996094 C 62.894531 270.257813 78.039063 285.535156 98.101563 285.535156 C 108.773438 285.535156 116.933594 282.359375 124.574219 275.257813 C 125.964844 274.074219 126.777344 272.410156 126.777344 270.636719 C 126.777344 267.230469 123.859375 264.46875 120.277344 264.46875 C 118.789063 264.46875 117.425781 264.992188 116.089844 266.066406 C 110.742188 270.855469 105.136719 273.050781 98.363281 273.050781 C 87.449219 273.050781 79.460938 266.210938 77.476563 255.421875 L 122.964844 255.421875 C 126.6875 255.421875 129.714844 252.488281 129.714844 248.871094 C 129.714844 231.636719 118.414063 214.191406 96.820313 214.191406 "/>
<path style=" stroke:none;fill-rule:nonzero;fill:rgb(0%,23.498535%,49.798584%);fill-opacity:1;" d="M 145.644531 188.4375 C 141.78125 188.4375 138.648438 191.539063 138.648438 195.363281 L 138.648438 277.730469 C 138.648438 281.621094 141.777344 284.667969 145.78125 284.667969 C 149.773438 284.667969 152.792969 281.6875 152.792969 277.730469 L 152.792969 195.363281 C 152.792969 191.539063 149.578125 188.4375 145.644531 188.4375 "/>
<path style=" stroke:none;fill-rule:nonzero;fill:rgb(0%,24.299622%,49.398804%);fill-opacity:1;" d="M 201.832031 246.054688 L 222.117188 226.703125 C 223.453125 225.398438 224.679688 223.882813 224.679688 221.492188 C 224.679688 217.824219 221.773438 214.945313 218.058594 214.945313 C 215.964844 214.945313 214.242188 215.753906 212.628906 217.496094 L 180.460938 249.277344 L 180.460938 195.363281 C 180.460938 191.539063 177.265625 188.4375 173.339844 188.4375 C 169.476563 188.4375 166.320313 191.539063 166.320313 195.363281 L 166.320313 277.730469 C 166.320313 281.621094 169.460938 284.667969 173.460938 284.667969 C 177.457031 284.667969 180.460938 281.6875 180.460938 277.730469 L 180.460938 266.277344 L 191.847656 255.332031 L 213.308594 281.628906 C 214.980469 283.746094 216.761719 284.667969 219.210938 284.667969 C 223.132813 284.667969 226.097656 281.847656 226.097656 278.113281 C 226.097656 276.449219 225.597656 275.136719 224.355469 273.601563 L 201.832031 246.054688 "/>
<path style=" stroke:none;fill-rule:nonzero;fill:rgb(0%,24.299622%,49.398804%);fill-opacity:1;" d="M 241.59375 249.613281 C 241.59375 236.609375 251.09375 226.796875 263.691406 226.796875 C 276.285156 226.796875 286.15625 236.929688 286.15625 249.867188 L 286.15625 250.113281 C 286.15625 263.050781 276.605469 272.804688 263.945313 272.804688 C 251.414063 272.804688 241.59375 262.726563 241.59375 249.867188 Z M 263.945313 214.191406 C 243.335938 214.191406 227.199219 229.863281 227.199219 249.867188 L 227.199219 250.113281 C 227.199219 269.972656 243.230469 285.535156 263.691406 285.535156 C 284.363281 285.535156 300.558594 269.867188 300.558594 249.867188 L 300.558594 249.613281 C 300.558594 229.753906 284.464844 214.191406 263.945313 214.191406 "/>
<path style=" stroke:none;fill-rule:nonzero;fill:rgb(0%,24.299622%,49.398804%);fill-opacity:1;" d="M 386.976563 214.191406 C 377.382813 214.191406 369.800781 217.808594 363.859375 225.210938 C 359.144531 218.082031 351.636719 214.191406 342.375 214.191406 C 333.167969 214.191406 327.25 217.964844 323.101563 222.378906 L 323.101563 221.859375 C 323.101563 217.980469 319.96875 214.945313 315.980469 214.945313 C 312.109375 214.945313 308.96875 218.046875 308.96875 221.859375 L 308.96875 277.730469 C 308.96875 281.621094 312.101563 284.667969 316.109375 284.667969 C 320.089844 284.667969 323.101563 281.6875 323.101563 277.730469 L 323.101563 245.261719 C 323.101563 234.710938 329.972656 227.054688 339.429688 227.054688 C 348.898438 227.054688 354.339844 233.28125 354.339844 244.144531 L 354.339844 277.730469 C 354.339844 281.621094 357.417969 284.667969 361.34375 284.667969 C 365.339844 284.667969 368.488281 281.621094 368.488281 277.730469 L 368.488281 244.886719 C 368.488281 234.222656 374.945313 227.054688 384.546875 227.054688 C 394.234375 227.054688 399.585938 233.203125 399.585938 244.386719 L 399.585938 277.730469 C 399.585938 281.621094 402.71875 284.667969 406.714844 284.667969 C 410.644531 284.667969 413.726563 281.621094 413.726563 277.730469 L 413.726563 242.144531 C 413.726563 224.902344 403.476563 214.191406 386.976563 214.191406 "/>
<path style=" stroke:none;fill-rule:nonzero;fill:rgb(0%,64.299011%,89.399719%);fill-opacity:1;" d="M 69.261719 306.507813 C 65.710938 306.507813 62.722656 309.472656 62.722656 312.980469 L 62.722656 392.082031 C 62.722656 395.578125 65.710938 398.550781 69.261719 398.550781 C 72.933594 398.550781 75.933594 395.636719 75.933594 392.082031 L 75.933594 312.980469 C 75.933594 309.414063 72.933594 306.507813 69.261719 306.507813 "/>
<path style=" stroke:none;fill-rule:nonzero;fill:rgb(0%,64.299011%,89.399719%);fill-opacity:1;" d="M 126.929688 328.726563 C 118.078125 328.726563 110.902344 331.941406 105.546875 338.273438 L 105.546875 335.832031 C 105.546875 332.261719 102.671875 329.476563 99 329.476563 C 95.464844 329.476563 92.589844 332.332031 92.589844 335.832031 L 92.589844 392.199219 C 92.589844 395.765625 95.464844 398.550781 99.128906 398.550781 C 102.78125 398.550781 105.546875 395.824219 105.546875 392.199219 L 105.546875 359.300781 C 105.546875 348.191406 113.160156 340.414063 124.089844 340.414063 C 134.890625 340.414063 141.078125 347.027344 141.078125 358.558594 L 141.078125 392.199219 C 141.078125 395.765625 143.957031 398.550781 147.625 398.550781 C 151.21875 398.550781 154.035156 395.765625 154.035156 392.199219 L 154.035156 356.175781 C 154.035156 339.5 143.394531 328.726563 126.929688 328.726563 "/>
<path style=" stroke:none;fill-rule:nonzero;fill:rgb(0%,64.299011%,89.399719%);fill-opacity:1;" d="M 221.132813 363.832031 L 221.132813 364.082031 C 221.132813 378.6875 209.355469 387.726563 198.449219 387.726563 C 185.890625 387.726563 176.410156 377.558594 176.410156 364.082031 L 176.410156 363.832031 C 176.410156 349.972656 185.472656 340.300781 198.449219 340.300781 C 209.597656 340.300781 221.132813 349.097656 221.132813 363.832031 Z M 227.152344 302.738281 C 223.5 302.738281 220.734375 305.464844 220.734375 309.085938 L 220.734375 339.707031 C 214.3125 332.414063 206.222656 328.726563 196.644531 328.726563 C 180.429688 328.726563 163.199219 341.074219 163.199219 363.953125 L 163.199219 364.203125 C 163.199219 387.003906 180.429688 399.304688 196.644531 399.304688 C 206.25 399.304688 214.164063 395.527344 220.734375 387.789063 L 220.734375 392.199219 C 220.734375 395.765625 223.617188 398.550781 227.28125 398.550781 C 230.878906 398.550781 233.691406 395.765625 233.691406 392.199219 L 233.691406 309.085938 C 233.691406 305.53125 230.824219 302.738281 227.152344 302.738281 "/>
<path style=" stroke:none;fill-rule:nonzero;fill:rgb(0%,64.299011%,89.399719%);fill-opacity:1;" d="M 256.84375 363.832031 C 256.84375 350.339844 266.714844 340.175781 279.792969 340.175781 C 292.871094 340.175781 303.121094 350.671875 303.121094 364.082031 L 303.121094 364.324219 C 303.121094 377.738281 293.210938 387.851563 280.054688 387.851563 C 267.035156 387.851563 256.84375 377.414063 256.84375 364.082031 Z M 280.054688 328.726563 C 259.628906 328.726563 243.632813 344.253906 243.632813 364.082031 L 243.632813 364.324219 C 243.632813 384.011719 259.515625 399.425781 279.792969 399.425781 C 300.277344 399.425781 316.332031 383.910156 316.332031 364.082031 L 316.332031 363.832031 C 316.332031 344.144531 300.394531 328.726563 280.054688 328.726563 "/>
<path style=" stroke:none;fill-rule:nonzero;fill:rgb(0%,64.299011%,89.399719%);fill-opacity:1;" d="M 360.476563 328.726563 C 351.632813 328.726563 344.453125 331.941406 339.09375 338.273438 L 339.09375 335.832031 C 339.09375 332.261719 336.21875 329.476563 332.554688 329.476563 C 329.019531 329.476563 326.144531 332.332031 326.144531 335.832031 L 326.144531 392.199219 C 326.144531 395.765625 329.019531 398.550781 332.6875 398.550781 C 336.335938 398.550781 339.09375 395.824219 339.09375 392.199219 L 339.09375 359.300781 C 339.09375 348.191406 346.71875 340.414063 357.640625 340.414063 C 368.4375 340.414063 374.628906 347.027344 374.628906 358.558594 L 374.628906 392.199219 C 374.628906 395.765625 377.507813 398.550781 381.179688 398.550781 C 384.777344 398.550781 387.585938 395.765625 387.585938 392.199219 L 387.585938 356.175781 C 387.585938 339.5 376.941406 328.726563 360.476563 328.726563 "/>
<path style=" stroke:none;fill-rule:nonzero;fill:rgb(0%,64.299011%,89.399719%);fill-opacity:1;" d="M 409.769531 358.992188 C 411.554688 347.597656 419.605469 339.789063 429.800781 339.789063 C 442.398438 339.789063 448.15625 349.421875 449.476563 358.992188 Z M 430.050781 328.726563 C 411.238281 328.726563 396.488281 344.203125 396.488281 363.953125 L 396.488281 364.203125 C 396.488281 384.289063 411.480469 399.425781 431.351563 399.425781 C 441.929688 399.425781 450.03125 396.28125 457.609375 389.234375 C 458.882813 388.144531 459.605469 386.640625 459.605469 385.046875 C 459.605469 381.953125 456.976563 379.449219 453.710938 379.449219 C 452.386719 379.449219 451.144531 379.929688 449.914063 380.914063 C 444.414063 385.839844 438.605469 388.109375 431.605469 388.109375 C 420.199219 388.109375 411.59375 380.515625 409.769531 369.046875 L 456.4375 369.046875 C 459.832031 369.046875 462.585938 366.367188 462.585938 363.074219 C 462.585938 346 451.414063 328.726563 430.050781 328.726563 "/>
<path style=" stroke:none;fill-rule:nonzero;fill:rgb(0%,64.299011%,89.399719%);fill-opacity:1;" d="M 498.390625 358.042969 L 498.140625 357.957031 C 489.96875 355.558594 482.253906 353.273438 482.253906 348.261719 L 482.253906 348.011719 C 482.253906 343.25 486.84375 340.042969 493.683594 340.042969 C 498.890625 340.042969 504.671875 341.71875 510.40625 344.875 C 510.984375 345.164063 512.019531 345.570313 513.335938 345.570313 C 516.59375 345.570313 519.230469 343.070313 519.230469 339.976563 C 519.230469 337.839844 518.050781 335.875 516.050781 334.710938 C 509.089844 331.046875 501.054688 328.980469 493.949219 328.980469 C 479.660156 328.980469 469.691406 337.222656 469.691406 349.019531 L 469.691406 349.265625 C 469.691406 362.597656 483.09375 366.289063 492.878906 368.984375 C 501.730469 371.394531 508.488281 373.644531 508.488281 379.019531 L 508.488281 379.265625 C 508.488281 384.5625 503.527344 388.109375 496.152344 388.109375 C 489.335938 388.109375 482.484375 385.871094 475.777344 381.453125 C 474.996094 380.828125 473.777344 380.4375 472.476563 380.4375 C 469.234375 380.4375 466.585938 382.960938 466.585938 386.050781 C 466.585938 388.261719 467.847656 389.921875 469.027344 390.753906 C 476.632813 396.023438 486.566406 399.175781 495.617188 399.175781 C 510.753906 399.175781 520.921875 390.78125 520.921875 378.253906 L 520.921875 378.015625 C 520.921875 364.597656 507.34375 360.648438 498.390625 358.042969 "/>
<path style=" stroke:none;fill-rule:nonzero;fill:rgb(0%,64.299011%,89.399719%);fill-opacity:1;" d="M 538.558594 329.476563 C 535.035156 329.476563 532.152344 332.332031 532.152344 335.832031 L 532.152344 392.199219 C 532.152344 395.765625 535.023438 398.550781 538.691406 398.550781 C 542.347656 398.550781 545.097656 395.824219 545.097656 392.199219 L 545.097656 335.832031 C 545.097656 332.261719 542.226563 329.476563 538.558594 329.476563 "/>
<path style=" stroke:none;fill-rule:nonzero;fill:rgb(0%,64.299011%,89.399719%);fill-opacity:1;" d="M 604.304688 367.4375 L 604.304688 372.609375 C 604.304688 381.804688 595.347656 388.734375 583.4375 388.734375 C 576.046875 388.734375 568.121094 385.144531 568.121094 377.257813 L 568.121094 377.007813 C 568.121094 369.5 574.855469 365.03125 586.148438 365.03125 C 592.246094 365.03125 598.199219 365.820313 604.304688 367.4375 Z M 609.453125 336.8125 C 604.277344 331.789063 596.648438 329.226563 586.789063 329.226563 C 578.710938 329.226563 571.800781 330.621094 564.339844 333.75 C 562.625 334.410156 560.726563 336.386719 560.726563 339.089844 C 560.726563 342.121094 563.421875 344.691406 566.621094 344.691406 C 567.351563 344.691406 568.1875 344.511719 568.988281 344.210938 C 574.484375 341.820313 579.960938 340.675781 585.761719 340.675781 C 594.160156 340.675781 604.167969 343.496094 604.167969 356.925781 L 604.167969 357.285156 C 599.238281 356.019531 593.410156 354.964844 585.121094 354.964844 C 566.570313 354.964844 555.035156 363.554688 555.035156 377.382813 L 555.035156 377.636719 C 555.035156 391.867188 568.34375 399.304688 581.496094 399.304688 C 592.371094 399.304688 599.589844 395.035156 604.167969 390.554688 L 604.167969 392.570313 C 604.167969 395.984375 606.878906 398.550781 610.457031 398.550781 C 614.039063 398.550781 616.742188 395.871094 616.742188 392.320313 L 616.742188 356.808594 C 616.742188 348.230469 614.292969 341.503906 609.453125 336.8125 "/>
</g>
</svg>
