<?xml version="1.0" encoding="UTF-8"?>
<svg xmlns="http://www.w3.org/2000/svg" xmlns:xlink="http://www.w3.org/1999/xlink" width="237.15pt" height="28.35pt" viewBox="0 0 237.15 28.35" version="1.1">
<defs>
<clipPath id="clip1">
  <path d="M 108 0 L 131 0 L 131 28.351563 L 108 28.351563 Z M 108 0 "/>
</clipPath>
<clipPath id="clip2">
  <path d="M 133 0 L 158 0 L 158 28.351563 L 133 28.351563 Z M 133 0 "/>
</clipPath>
<clipPath id="clip3">
  <path d="M 159 0 L 187 0 L 187 28.351563 L 159 28.351563 Z M 159 0 "/>
</clipPath>
<clipPath id="clip4">
  <path d="M 216 0 L 237.148438 0 L 237.148438 28 L 216 28 Z M 216 0 "/>
</clipPath>
</defs>
<g id="surface1">
<path style=" stroke:none;fill-rule:nonzero;fill:rgb(13.33313%,17.254639%,39.607239%);fill-opacity:1;" d="M 0 0.761719 L 0 7.820313 L 7.09375 7.820313 L 7.09375 27.648438 L 15.453125 27.648438 L 15.453125 7.820313 L 22.621094 7.820313 L 22.621094 0.761719 L 0 0.761719 "/>
<g clip-path="url(#clip1)" clip-rule="nonzero">
<path style=" stroke:none;fill-rule:nonzero;fill:rgb(13.33313%,17.254639%,39.607239%);fill-opacity:1;" d="M 128.15625 13.578125 C 126.597656 12.230469 124.402344 11.367188 121.804688 10.714844 C 121.097656 10.539063 120.398438 10.304688 119.722656 10.019531 C 119.160156 9.785156 118.535156 9.511719 118.175781 8.996094 C 117.949219 8.667969 117.96875 8.269531 118.148438 7.933594 C 118.355469 7.535156 118.730469 7.363281 119.148438 7.253906 C 119.601563 7.144531 120.214844 7.164063 120.667969 7.253906 C 121.179688 7.351563 121.679688 7.511719 122.171875 7.695313 C 123.296875 8.132813 124.351563 8.75 125.351563 9.4375 L 126.191406 10.027344 L 130.226563 4.1875 L 129.472656 3.589844 C 126.730469 1.390625 123.332031 0.144531 119.429688 0.144531 C 119.429688 0.144531 119.425781 0.144531 119.398438 0.144531 C 116.628906 0.144531 114.15625 0.964844 112.363281 2.488281 C 110.578125 3.992188 109.507813 6.210938 109.507813 8.78125 C 109.515625 8.785156 109.507813 8.804688 109.515625 8.835938 L 109.515625 8.886719 C 109.515625 8.914063 109.507813 8.9375 109.507813 8.972656 C 109.503906 11.738281 110.535156 13.664063 112.207031 14.96875 C 113.882813 16.28125 116.148438 17.011719 118.691406 17.632813 C 119.375 17.800781 120.078125 17.957031 120.710938 18.273438 C 121.320313 18.570313 122.089844 19.109375 122.089844 19.882813 L 122.089844 19.933594 C 122.082031 20.316406 121.964844 20.578125 121.578125 20.835938 C 121.183594 21.085938 120.5 21.300781 119.449219 21.300781 C 117.660156 21.300781 115.664063 20.257813 113.472656 18.457031 L 112.6875 17.808594 L 108.101563 23.292969 L 108.839844 23.964844 C 112.082031 26.859375 116.210938 28.277344 120.28125 28.277344 C 123.1875 28.277344 125.753906 27.535156 127.636719 26.011719 C 129.519531 24.492188 130.621094 22.183594 130.621094 19.40625 L 130.621094 19.25 C 130.625 16.785156 129.726563 14.925781 128.15625 13.578125 "/>
</g>
<path style=" stroke:none;fill-rule:nonzero;fill:rgb(13.33313%,17.254639%,39.607239%);fill-opacity:1;" d="M 97.71875 0.761719 L 97.71875 12.859375 L 88.523438 0.761719 L 81.976563 0.761719 L 81.976563 27.648438 L 90.335938 27.648438 L 90.335938 15.054688 L 99.921875 27.648438 L 106.074219 27.648438 L 106.074219 0.761719 L 97.71875 0.761719 "/>
<path style=" stroke:none;fill-rule:nonzero;fill:rgb(13.33313%,17.254639%,39.607239%);fill-opacity:1;" d="M 33.933594 7.710938 L 36.695313 7.710938 C 37.898438 7.75 38.722656 7.980469 39.21875 8.375 C 39.707031 8.773438 39.992188 9.371094 39.992188 10.324219 C 39.96875 11.125 39.726563 11.703125 39.242188 12.121094 C 38.761719 12.542969 37.96875 12.816406 36.796875 12.84375 L 33.933594 12.84375 Z M 48.71875 27.648438 L 43.949219 17.910156 C 45.933594 16.789063 47.453125 14.957031 48.039063 12.691406 C 48.253906 11.863281 48.34375 10.96875 48.339844 10.109375 L 48.339844 9.960938 C 48.34375 7.414063 47.511719 5.171875 45.917969 3.585938 C 44.050781 1.707031 41.296875 0.761719 37.960938 0.761719 L 25.582031 0.761719 L 25.582031 27.648438 L 33.933594 27.648438 L 33.933594 19.6875 L 35.109375 19.6875 C 35.273438 19.6875 35.441406 19.679688 35.609375 19.675781 L 39.453125 27.648438 L 48.71875 27.648438 "/>
<path style=" stroke:none;fill-rule:nonzero;fill:rgb(0%,52.198792%,24.699402%);fill-opacity:1;" d="M 54.617188 18.453125 L 59.945313 9.226563 L 65.273438 18.453125 Z M 54.617188 18.453125 "/>
<path style=" stroke:none;fill-rule:nonzero;fill:rgb(0%,28.999329%,56.498718%);fill-opacity:1;" d="M 65.273438 18.453125 L 70.59375 9.226563 L 75.921875 18.453125 Z M 65.273438 18.453125 "/>
<path style=" stroke:none;fill-rule:nonzero;fill:rgb(66.299438%,12.89978%,55.699158%);fill-opacity:1;" d="M 75.921875 18.453125 L 70.59375 27.675781 L 65.273438 18.453125 Z M 75.921875 18.453125 "/>
<path style=" stroke:none;fill-rule:nonzero;fill:rgb(83.898926%,4.699707%,54.899597%);fill-opacity:1;" d="M 70.59375 27.675781 L 75.921875 18.453125 L 81.242188 27.675781 Z M 70.59375 27.675781 "/>
<path style=" stroke:none;fill-rule:nonzero;fill:rgb(75.698853%,84.698486%,18.399048%);fill-opacity:1;" d="M 57.28125 23.066406 L 65.273438 18.453125 L 59.945313 27.675781 Z M 57.28125 23.066406 "/>
<path style=" stroke:none;fill-rule:nonzero;fill:rgb(100%,88.198853%,30.999756%);fill-opacity:1;" d="M 57.28125 23.066406 L 49.292969 27.675781 L 59.945313 27.675781 Z M 57.28125 23.066406 "/>
<path style=" stroke:none;fill-rule:nonzero;fill:rgb(42.399597%,70.199585%,24.699402%);fill-opacity:1;" d="M 57.28125 23.066406 L 65.273438 18.453125 L 54.617188 18.453125 Z M 57.28125 23.066406 "/>
<path style=" stroke:none;fill-rule:nonzero;fill:rgb(99.198914%,72.499084%,7.499695%);fill-opacity:1;" d="M 57.28125 23.066406 L 49.292969 27.675781 L 54.617188 18.453125 Z M 57.28125 23.066406 "/>
<path style=" stroke:none;fill-rule:nonzero;fill:rgb(0%,28.999329%,56.498718%);fill-opacity:1;" d="M 65.273438 9.226563 L 65.273438 0.00390625 L 70.59375 9.226563 Z M 65.273438 9.226563 "/>
<path style=" stroke:none;fill-rule:nonzero;fill:rgb(0%,36.499023%,67.098999%);fill-opacity:1;" d="M 65.273438 9.226563 L 65.273438 18.453125 L 70.59375 9.226563 Z M 65.273438 9.226563 "/>
<path style=" stroke:none;fill-rule:nonzero;fill:rgb(0%,36.499023%,67.098999%);fill-opacity:1;" d="M 65.273438 9.226563 L 65.273438 0.00390625 L 59.945313 9.226563 Z M 65.273438 9.226563 "/>
<path style=" stroke:none;fill-rule:nonzero;fill:rgb(0%,47.499084%,75.698853%);fill-opacity:1;" d="M 65.273438 9.226563 L 65.273438 18.453125 L 59.945313 9.226563 Z M 65.273438 9.226563 "/>
<g clip-path="url(#clip2)" clip-rule="nonzero">
<path style=" stroke:none;fill-rule:nonzero;fill:rgb(13.33313%,17.254639%,39.607239%);fill-opacity:1;" d="M 155.292969 20.609375 L 154.945313 20.945313 C 152.675781 23.148438 150.4375 24.617188 146.902344 24.617188 C 141.535156 24.617188 137.332031 20.039063 137.332031 14.195313 L 137.332031 14.117188 C 137.332031 8.21875 141.445313 3.765625 146.902344 3.765625 C 149.851563 3.765625 152.191406 4.8125 154.722656 7.253906 L 155.085938 7.605469 L 157.75 4.691406 L 157.40625 4.363281 C 155.058594 2.117188 152.171875 0.0351563 146.9375 0.0351563 C 139.296875 0.0351563 133.3125 6.257813 133.3125 14.195313 L 133.3125 14.269531 C 133.3125 22.292969 139.121094 28.351563 146.828125 28.351563 C 152.195313 28.351563 155.265625 25.929688 157.566406 23.558594 L 157.898438 23.214844 L 155.292969 20.609375 "/>
</g>
<g clip-path="url(#clip3)" clip-rule="nonzero">
<path style=" stroke:none;fill-rule:nonzero;fill:rgb(13.33313%,17.254639%,39.607239%);fill-opacity:1;" d="M 172.828125 24.617188 C 167.261719 24.617188 163.070313 20.132813 163.070313 14.195313 L 163.070313 14.117188 C 163.070313 8.21875 167.234375 3.765625 172.746094 3.765625 C 178.308594 3.765625 182.503906 8.25 182.503906 14.195313 L 182.503906 14.269531 C 182.503906 20.171875 178.335938 24.617188 172.828125 24.617188 Z M 186.519531 13.996094 C 186.460938 6.03125 180.59375 0.0351563 172.828125 0.0351563 C 165.097656 0.0351563 159.054688 6.257813 159.054688 14.195313 L 159.054688 14.269531 C 159.054688 22.292969 164.9375 28.351563 172.746094 28.351563 C 180.429688 28.351563 186.457031 22.195313 186.519531 14.3125 C 186.558594 14.214844 186.558594 14.101563 186.519531 13.996094 "/>
</g>
<path style=" stroke:none;fill-rule:nonzero;fill:rgb(13.33313%,17.254639%,39.607239%);fill-opacity:1;" d="M 194.222656 4.21875 L 201.746094 4.21875 C 205.660156 4.21875 207.902344 5.941406 207.902344 8.945313 L 207.902344 9.023438 C 207.902344 12.027344 205.46875 13.964844 201.710938 13.964844 L 194.222656 13.964844 Z M 205.148438 16.929688 C 209.359375 15.886719 211.847656 12.933594 211.847656 8.90625 L 211.847656 8.835938 C 211.847656 6.660156 211.085938 4.6875 209.695313 3.28125 C 207.933594 1.480469 205.1875 0.484375 201.96875 0.484375 L 190.3125 0.484375 L 190.3125 27.894531 L 194.222656 27.894531 L 194.222656 17.628906 L 200.90625 17.628906 L 208.441406 27.894531 L 213.25 27.894531 L 205.148438 16.929688 "/>
<g clip-path="url(#clip4)" clip-rule="nonzero">
<path style=" stroke:none;fill-rule:nonzero;fill:rgb(13.33313%,17.254639%,39.607239%);fill-opacity:1;" d="M 226.5625 14.878906 L 220.628906 14.878906 L 220.628906 4.21875 L 226.710938 4.21875 C 230.832031 4.21875 233.199219 6.136719 233.199219 9.472656 L 233.199219 9.546875 C 233.199219 12.78125 230.597656 14.878906 226.5625 14.878906 Z M 226.933594 0.484375 L 216.722656 0.484375 L 216.722656 27.894531 L 220.628906 27.894531 L 220.628906 18.570313 L 226.453125 18.570313 C 231.773438 18.570313 237.144531 15.746094 237.144531 9.4375 L 237.144531 9.359375 C 237.144531 3.972656 233.140625 0.484375 226.933594 0.484375 "/>
</g>
</g>
</svg>
