<?xml version="1.0" encoding="UTF-8"?>
<!DOCTYPE svg PUBLIC "-//W3C//DTD SVG 1.1//EN" "http://www.w3.org/Graphics/SVG/1.1/DTD/svg11.dtd">
<!-- Creator: CorelDRAW X5 -->
<svg xmlns="http://www.w3.org/2000/svg" xml:space="preserve" width="135.467mm" height="54.1866mm" style="shape-rendering:geometricPrecision; text-rendering:geometricPrecision; image-rendering:optimizeQuality; fill-rule:evenodd; clip-rule:evenodd"
viewBox="0 0 13547 5419"
 xmlns:xlink="http://www.w3.org/1999/xlink"
 xmlns:svg="http://www.w3.org/2000/svg">
 <defs>
  <style type="text/css">
   <![CDATA[
    .fil1 {fill:#2F69B5;fill-rule:nonzero}
    .fil0 {fill:#F49713;fill-rule:nonzero}
   ]]>
  </style>
 </defs>
 <g id="Layer_x0020_1">
  <metadata id="CorelCorpID_0Corel-Layer"/>
 </g>
 <g id="Layer_x0020_1_0">
  <metadata id="CorelCorpID_1Corel-Layer"/>
  <g id="_643305544">
   <path class="fil0" d="M6931 1c484,-17 972,56 1429,218 687,241 1302,684 1751,1256 198,251 363,528 493,820 23,49 41,103 28,157 -15,91 -95,166 -187,175 -95,14 -194,-46 -228,-135 -258,-607 -699,-1135 -1248,-1500 -340,-227 -721,-392 -1119,-485 -513,-120 -1054,-120 -1567,0 -733,169 -1404,589 -1878,1174 -201,246 -366,521 -491,813 -27,68 -89,121 -162,133 -70,14 -146,-11 -195,-63 -57,-58 -76,-150 -47,-225 344,-813 981,-1496 1763,-1902 510,-267 1080,-416 1655,-435z"/>
   <path class="fil1" d="M6291 2504c-3,-42 37,-74 77,-75 51,-1 103,-1 155,0 36,1 78,25 77,65 2,472 -1,945 2,1418 191,-213 384,-424 576,-637 38,-37 68,-94 127,-99 79,-3 159,-1 238,-1 31,-3 65,25 54,58 -13,25 -36,42 -54,62 -208,208 -416,414 -623,623 200,228 396,458 595,687 26,33 58,60 79,96 16,28 -10,62 -40,63 -66,4 -132,0 -198,2 -34,-1 -72,4 -103,-13 -33,-19 -53,-53 -76,-81 -192,-241 -382,-484 -574,-725 -2,238 -1,475 -1,713 -1,27 5,60 -19,80 -38,37 -95,24 -142,26 -42,-1 -91,8 -125,-23 -19,-15 -24,-40 -23,-63 1,-726 0,-1451 0,-2176z"/>
   <path class="fil1" d="M5417 3171c96,-31 204,-37 299,4 33,16 71,49 56,89 -15,51 -28,103 -46,153 -13,36 -55,49 -90,42 -79,-14 -157,-40 -238,-37 -57,-1 -109,29 -148,69 -63,61 -95,147 -110,232 -12,61 -8,124 -9,186 0,261 0,521 0,782 4,43 -41,72 -79,73 -53,1 -106,1 -159,0 -38,-2 -82,-30 -77,-73 0,-483 -1,-965 0,-1448 -3,-48 50,-74 92,-70 52,3 124,-16 158,36 26,61 38,127 62,189 73,-100 170,-188 289,-228z"/>
   <path class="fil1" d="M0 3208c15,-17 32,-35 57,-33 72,-1 144,-2 216,1 37,1 62,33 67,67 71,288 140,577 211,865 21,89 46,177 59,268 14,81 17,164 30,245 18,-116 35,-233 66,-347 92,-344 184,-688 277,-1032 7,-39 44,-67 83,-67 80,-2 161,-1 241,-1 43,-2 89,23 99,67 69,251 137,502 206,753 42,163 96,322 120,489 6,46 13,92 22,138 26,-262 93,-517 149,-774 46,-204 91,-409 137,-613 7,-41 50,-62 88,-60 65,0 130,-2 195,1 38,1 61,44 47,78 -130,480 -260,961 -390,1441 -7,39 -41,69 -80,69 -101,3 -201,1 -302,1 -36,2 -74,-17 -80,-55 -90,-330 -178,-661 -267,-992 -32,-115 -45,-234 -59,-352 -17,105 -25,212 -53,316 -91,340 -183,681 -275,1021 -10,55 -73,66 -120,63 -94,-2 -187,2 -280,-2 -33,0 -59,-26 -65,-57 -131,-478 -262,-957 -393,-1435 -5,-21 -4,-42 -5,-63z"/>
   <path class="fil1" d="M11792 3175c68,-1 137,-1 205,0 42,1 81,29 94,69 118,308 235,617 353,925 25,63 42,128 53,194 49,-183 114,-361 170,-541 63,-195 127,-390 190,-585 9,-34 42,-57 76,-60 56,-4 112,-1 168,-2 33,0 72,-3 96,23 16,14 13,36 6,54 -188,537 -376,1075 -564,1613 -33,90 -58,183 -110,264 -76,123 -198,211 -332,259 -47,15 -96,47 -146,29 -36,-9 -50,-46 -69,-74 -14,-25 -39,-48 -34,-79 2,-31 27,-56 56,-64 57,-20 114,-41 160,-81 112,-94 181,-234 207,-376 -18,-63 -51,-121 -75,-182 -180,-418 -359,-835 -539,-1253 -11,-27 -27,-53 -30,-83 0,-33 38,-47 65,-48z"/>
   <path class="fil1" d="M3415 3377c-98,18 -187,79 -237,166 -83,141 -93,311 -89,471 6,145 29,299 121,416 69,88 182,132 292,130 106,3 217,-32 288,-113 92,-100 121,-239 134,-370 6,-129 8,-260 -25,-386 -27,-106 -83,-212 -180,-270 -90,-55 -202,-61 -304,-45zm41 -229l0 0c177,-11 363,26 509,131 131,93 220,237 261,391 49,184 49,380 4,564 -42,170 -141,331 -290,427 -159,106 -359,133 -545,110 -159,-20 -314,-89 -425,-207 -130,-136 -195,-324 -208,-510 -16,-206 15,-424 130,-600 85,-132 219,-229 370,-274 63,-20 128,-29 193,-34z"/>
   <path class="fil1" d="M8687 3369c-97,6 -191,62 -234,151 -85,164 -87,355 -82,536 7,118 20,240 75,346 37,72 105,128 184,146 122,29 266,4 353,-92 84,-95 111,-225 124,-347 9,-140 9,-282 -25,-419 -24,-91 -64,-183 -137,-246 -69,-61 -166,-85 -257,-74zm418 -885l0 0c-2,-37 36,-61 69,-64 53,-3 106,-1 158,-1 40,0 85,30 79,74 0,729 0,1458 0,2186 3,38 -34,67 -69,69 -42,2 -84,2 -126,-1 -29,-2 -58,-21 -68,-49 -16,-47 -24,-97 -36,-145 -58,79 -133,149 -226,183 -133,49 -281,50 -418,16 -137,-33 -257,-127 -323,-252 -104,-190 -116,-413 -110,-624 4,-181 38,-371 156,-515 89,-122 234,-191 381,-210 137,-20 285,3 398,86 54,38 96,88 135,141 -1,-299 -1,-598 0,-898z"/>
   <path class="fil1" d="M10578 3378c-49,10 -96,30 -135,60 -79,61 -118,159 -139,254 -30,150 -30,306 -14,457 15,112 43,231 125,313 67,70 167,96 261,91 101,4 206,-34 272,-114 82,-99 105,-230 117,-354 8,-145 8,-294 -33,-435 -26,-88 -73,-175 -153,-226 -88,-58 -199,-63 -300,-47zm-135 -200l0 0c140,-39 291,-41 432,-9 132,31 255,104 336,214 86,112 129,252 147,390 16,107 11,215 11,323 0,195 0,389 -1,584 2,24 -13,45 -32,57 -33,20 -73,11 -110,13 -41,0 -95,3 -117,-39 -22,-50 -26,-106 -40,-158 -55,67 -111,135 -191,174 -121,60 -262,56 -391,31 -158,-31 -304,-125 -393,-259 -107,-157 -145,-351 -144,-538 -1,-182 34,-371 136,-525 81,-126 211,-218 355,-257z"/>
   <path class="fil1" d="M13270 4373c-80,29 -131,122 -110,206 21,98 135,165 230,129 88,-27 143,-127 116,-215 -24,-99 -142,-158 -236,-119zm11 -42l0 0c48,-8 99,-8 144,14 75,34 129,115 121,199 6,100 -78,190 -174,206 -108,23 -225,-55 -247,-164 -28,-109 47,-231 156,-255z"/>
   <path class="fil1" d="M13303 4454c0,23 0,46 0,68 20,-1 40,0 60,-5 19,-8 17,-31 12,-47 -19,-19 -48,-14 -72,-16zm-60 -37l0 0c58,3 122,-13 174,19 42,31 22,100 -26,114 14,36 33,69 50,104 -22,0 -43,1 -65,1 -15,-32 -31,-64 -46,-96 -9,0 -19,0 -28,-1 0,32 0,64 0,96 -20,0 -40,-1 -60,-1 0,-79 0,-158 0,-237z"/>
  </g>
 </g>
</svg>
